<svg width="32" height="16" viewBox="0 0 32 16" fill="none" xmlns="http://www.w3.org/2000/svg">
<g clip-path="url(#clip0_2537_293)">
<g clip-path="url(#clip1_2537_293)">
<path opacity="0.994" fill-rule="evenodd" clip-rule="evenodd" d="M6.62668 2.30078C5.78441 2.30078 4.95039 2.46668 4.17223 2.789C3.39407 3.11133 2.68702 3.58376 2.09145 4.17934C1.49587 4.77491 1.02343 5.48196 0.701112 6.26012C0.378788 7.03828 0.212891 7.8723 0.212891 8.71457C0.212891 9.55685 0.378788 10.3909 0.701112 11.169C1.02343 11.9472 1.49587 12.6542 2.09145 13.2498C2.68702 13.8454 3.39407 14.3178 4.17223 14.6401C4.95039 14.9625 5.78441 15.1284 6.62668 15.1284H24.7991C26.5001 15.1284 28.1315 14.4526 29.3343 13.2498C30.5372 12.047 31.2129 10.4156 31.2129 8.71457C31.2129 7.01353 30.5372 5.38216 29.3343 4.17934C28.1315 2.97652 26.5001 2.30078 24.7991 2.30078H6.62668ZM6.62668 3.36975C5.20915 3.36975 3.84967 3.93286 2.84732 4.93521C1.84497 5.93756 1.28186 7.29704 1.28186 8.71457C1.28186 10.1321 1.84497 11.4916 2.84732 12.4939C3.84967 13.4963 5.20915 14.0594 6.62668 14.0594H24.7991C26.2166 14.0594 27.5761 13.4963 28.5785 12.4939C29.5808 11.4916 30.1439 10.1321 30.1439 8.71457C30.1439 7.29704 29.5808 5.93756 28.5785 4.93521C27.5761 3.93286 26.2166 3.36975 24.7991 3.36975H6.62668Z" fill="#79D47F"/>
<path d="M3.41992 8.71471C3.41992 7.86419 3.75779 7.0485 4.3592 6.44709C4.96061 5.84568 5.7763 5.50781 6.62682 5.50781H9.76958C9.78659 5.50781 9.8029 5.51457 9.81493 5.5266C9.82696 5.53863 9.83372 5.55494 9.83372 5.57195V11.8575C9.83372 11.8659 9.83206 11.8742 9.82883 11.882C9.82561 11.8898 9.82089 11.8969 9.81493 11.9028C9.80897 11.9088 9.8019 11.9135 9.79412 11.9167C9.78634 11.9199 9.778 11.9216 9.76958 11.9216H6.62682C5.7763 11.9216 4.96061 11.5837 4.3592 10.9823C3.75779 10.3809 3.41992 9.56523 3.41992 8.71471ZM28.0061 8.71471C28.0061 9.56523 27.6683 10.3809 27.0669 10.9823C26.4654 11.5837 25.6498 11.9216 24.7992 11.9216H20.5982C20.5784 11.9216 20.5593 11.9137 20.5453 11.8997C20.5313 11.8857 20.5234 11.8666 20.5234 11.8468V5.58264C20.5234 5.57281 20.5253 5.56308 20.5291 5.554C20.5328 5.54493 20.5383 5.53668 20.5453 5.52973C20.5522 5.52278 20.5605 5.51727 20.5696 5.51351C20.5786 5.50975 20.5884 5.50781 20.5982 5.50781H24.7992C25.6498 5.50781 26.4654 5.84568 27.0669 6.44709C27.6683 7.0485 28.0061 7.86419 28.0061 8.71471Z" fill="#33B327"/>
<path d="M17.3165 5.50781H13.0406C12.4503 5.50781 11.9717 5.9864 11.9717 6.57678V10.8526C11.9717 11.443 12.4503 11.9216 13.0406 11.9216H17.3165C17.9069 11.9216 18.3855 11.443 18.3855 10.8526V6.57678C18.3855 5.9864 17.9069 5.50781 17.3165 5.50781Z" fill="#33B327"/>
</g>
</g>
<defs>
<clipPath id="clip0_2537_293">
<rect width="31" height="15" fill="white" transform="translate(0.212891 0.680176)"/>
</clipPath>
<clipPath id="clip1_2537_293">
<rect width="31" height="13.8966" fill="white" transform="translate(0.212891 1.23193)"/>
</clipPath>
</defs>
</svg>
