<svg width="32" height="16" viewBox="0 0 32 16" fill="none" xmlns="http://www.w3.org/2000/svg">
<g clip-path="url(#clip0_2537_286)">
<g clip-path="url(#clip1_2537_286)">
<path opacity="0.994" fill-rule="evenodd" clip-rule="evenodd" d="M6.947 2.12061C6.10472 2.12061 5.2707 2.2865 4.49254 2.60883C3.71439 2.93115 3.00734 3.40359 2.41176 3.99916C1.81618 4.59474 1.34375 5.30179 1.02142 6.07995C0.699101 6.8581 0.533203 7.69213 0.533203 8.5344C0.533203 9.37667 0.699101 10.2107 1.02142 10.9889C1.34375 11.767 1.81618 12.4741 2.41176 13.0696C3.00734 13.6652 3.71439 14.1376 4.49254 14.46C5.2707 14.7823 6.10472 14.9482 6.947 14.9482H25.1194C26.8205 14.9482 28.4518 14.2725 29.6546 13.0696C30.8575 11.8668 31.5332 10.2354 31.5332 8.5344C31.5332 6.83335 30.8575 5.20198 29.6546 3.99916C28.4518 2.79634 26.8205 2.12061 25.1194 2.12061H6.947ZM6.947 3.18957C5.52946 3.18957 4.16998 3.75269 3.16763 4.75503C2.16528 5.75738 1.60217 7.11686 1.60217 8.5344C1.60217 9.95194 2.16528 11.3114 3.16763 12.3138C4.16998 13.3161 5.52946 13.8792 6.947 13.8792H25.1194C26.5369 13.8792 27.8964 13.3161 28.8988 12.3138C29.9011 11.3114 30.4642 9.95194 30.4642 8.5344C30.4642 7.11686 29.9011 5.75738 28.8988 4.75503C27.8964 3.75269 26.5369 3.18957 25.1194 3.18957H6.947Z" fill="#D47979"/>
<path d="M3.74023 8.53453C3.74023 7.68401 4.0781 6.86832 4.67951 6.26692C5.28092 5.66551 6.09661 5.32764 6.94713 5.32764H10.0899C10.1069 5.32764 10.1232 5.33439 10.1352 5.34642C10.1473 5.35845 10.154 5.37476 10.154 5.39177V11.6773C10.154 11.6857 10.1524 11.6941 10.1491 11.7018C10.1459 11.7096 10.1412 11.7167 10.1352 11.7226C10.1293 11.7286 10.1222 11.7333 10.1144 11.7365C10.1067 11.7398 10.0983 11.7414 10.0899 11.7414H6.94713C6.09661 11.7414 5.28092 11.4036 4.67951 10.8022C4.0781 10.2007 3.74023 9.38506 3.74023 8.53453Z" fill="#B32727"/>
</g>
</g>
<defs>
<clipPath id="clip0_2537_286">
<rect width="31" height="15" fill="white" transform="translate(0.533203 0.5)"/>
</clipPath>
<clipPath id="clip1_2537_286">
<rect width="31" height="13.8966" fill="white" transform="translate(0.533203 1.05176)"/>
</clipPath>
</defs>
</svg>
