<svg width="32" height="15" viewBox="0 0 32 15" fill="none" xmlns="http://www.w3.org/2000/svg">
<g clip-path="url(#clip0_2537_258)">
<g clip-path="url(#clip1_2537_258)">
<path opacity="0.994" fill-rule="evenodd" clip-rule="evenodd" d="M7.197 1.62061C6.35472 1.62061 5.5207 1.7865 4.74254 2.10883C3.96439 2.43115 3.25734 2.90359 2.66176 3.49916C2.06618 4.09474 1.59375 4.80179 1.27142 5.57995C0.949101 6.3581 0.783203 7.19213 0.783203 8.0344C0.783203 8.87667 0.949101 9.71069 1.27142 10.4889C1.59375 11.267 2.06618 11.9741 2.66176 12.5696C3.25734 13.1652 3.96439 13.6376 4.74254 13.96C5.5207 14.2823 6.35472 14.4482 7.197 14.4482H25.3694C27.0705 14.4482 28.7018 13.7725 29.9046 12.5696C31.1075 11.3668 31.7832 9.73544 31.7832 8.0344C31.7832 6.33335 31.1075 4.70198 29.9046 3.49916C28.7018 2.29634 27.0705 1.62061 25.3694 1.62061H7.197ZM7.197 2.68957C5.77946 2.68957 4.41998 3.25269 3.41763 4.25503C2.41528 5.25738 1.85217 6.61686 1.85217 8.0344C1.85217 9.45194 2.41528 10.8114 3.41763 11.8138C4.41998 12.8161 5.77946 13.3792 7.197 13.3792H25.3694C26.7869 13.3792 28.1464 12.8161 29.1488 11.8138C30.1511 10.8114 30.7142 9.45194 30.7142 8.0344C30.7142 6.61686 30.1511 5.25738 29.1488 4.25503C28.1464 3.25269 26.7869 2.68957 25.3694 2.68957H7.197Z" fill="#FFF45F"/>
<path d="M3.99023 8.03453C3.99023 7.18401 4.3281 6.36832 4.92951 5.76692C5.53092 5.16551 6.34661 4.82764 7.19713 4.82764H10.3399C10.3569 4.82764 10.3732 4.83439 10.3852 4.84642C10.3973 4.85845 10.404 4.87476 10.404 4.89177V11.1773C10.404 11.1857 10.4024 11.1941 10.3991 11.2018C10.3959 11.2096 10.3912 11.2167 10.3852 11.2226C10.3793 11.2286 10.3722 11.2333 10.3644 11.2365C10.3567 11.2398 10.3483 11.2414 10.3399 11.2414H7.19713C6.34661 11.2414 5.53092 10.9036 4.92951 10.3022C4.3281 9.70074 3.99023 8.88506 3.99023 8.03453Z" fill="#FFF45F"/>
<path d="M17.8868 4.82764H13.611C13.0206 4.82764 12.542 5.30623 12.542 5.8966V10.1725C12.542 10.7628 13.0206 11.2414 13.611 11.2414H17.8868C18.4772 11.2414 18.9558 10.7628 18.9558 10.1725V5.8966C18.9558 5.30623 18.4772 4.82764 17.8868 4.82764Z" fill="#FFF45F"/>
</g>
</g>
<defs>
<clipPath id="clip0_2537_258">
<rect width="31" height="15" fill="white" transform="translate(0.783203)"/>
</clipPath>
<clipPath id="clip1_2537_258">
<rect width="31" height="13.8966" fill="white" transform="translate(0.783203 0.551758)"/>
</clipPath>
</defs>
</svg>
