<?xml version="1.0" encoding="UTF-8"?>
<!DOCTYPE svg PUBLIC "-//W3C//DTD SVG 1.1//EN" "http://www.w3.org/Graphics/SVG/1.1/DTD/svg11.dtd">
<!-- Creator: CorelDRAW 2020 (64-Bit) -->
<svg xmlns="http://www.w3.org/2000/svg" xml:space="preserve" width="1377px" height="798px" version="1.1" style="shape-rendering:geometricPrecision; text-rendering:geometricPrecision; image-rendering:optimizeQuality; fill-rule:evenodd; clip-rule:evenodd"
viewBox="0 0 1375.32 797.04"
 xmlns:xlink="http://www.w3.org/1999/xlink"
 xmlns:xodm="http://www.corel.com/coreldraw/odm/2003">
 <defs>
  <style type="text/css">
   <![CDATA[
    .fil1 {fill:#2B2A29}
    .fil0 {fill:#E31E24}
    .fil2 {fill:#FEFEFE;fill-rule:nonzero}
   ]]>
  </style>
 </defs>
 <g id="Слой_x0020_1">
  <metadata id="CorelCorpID_0Corel-Layer"/>
  <g id="_2189524029328">
   <rect class="fil0" y="682.66" width="1375.32" height="114.39"/>
   <g>
    <polygon class="fil1" points="641.54,640.87 641.54,145.61 704.17,145.61 770.69,145.61 770.69,640.87 "/>
    <path class="fil0" d="M777.57 123.23l-73.4 0 -110.46 0 -129.16 0 -291.54 0 0 -123.23 559.56 0 137.88 0 -92.88 123.23zm-183.86 22.38l0 495.26 -129.16 0 0 -495.26 129.16 0z"/>
    <polygon class="fil0" points="966.61,640.87 777.57,123.23 870.45,0 1104.48,640.87 "/>
    <polygon class="fil1" points="1051.95,424.1 1201.88,0 1246.16,0.11 1246.16,0 1375.32,0 1375.32,640.87 1246.16,640.87 1246.16,212.98 1112.31,589.35 "/>
    <polygon class="fil1" points="132.18,145.61 132.18,526.48 422.76,526.48 422.76,640.87 132.18,640.87 0,640.87 0,526.48 0,145.61 "/>
    <polygon class="fil1" points="0,0 132.18,0 132.18,123.23 0,123.23 "/>
   </g>
   <path class="fil2" d="M45.64 763.36l0 -47.02 7.84 0 0 39.19 39.19 0 0 7.83 -47.03 0zm54.87 0l0 -47.02 47.03 0 0 7.83 -39.19 0 0 11.76 31.35 0 0 7.84 -31.35 0 0 11.76 39.19 0 0 7.83 -47.03 0zm54.82 0l0.04 -47.02 39.19 0c5.21,0 7.84,2.62 7.84,7.83l0 7.84c0,5.23 -2.63,7.84 -7.84,7.84 5.21,0 7.84,2.61 7.84,7.84l0 7.84c0,5.22 -2.64,7.83 -7.88,7.83l-39.19 0zm7.88 -27.43l27.43 0c2.61,0 3.92,-1.3 3.92,-3.92l0 -7.84 -31.35 0 0 11.76zm-0.04 19.6l31.35 0 0.04 -7.84c0,-2.61 -1.31,-3.92 -3.92,-3.92l-27.43 0 -0.04 11.76zm47.06 7.83l0 -47.02 7.84 0 0 47.02 -7.84 0zm15.68 -39.19l0 -7.83 47.03 0 0 7.83 -35.23 31.36 35.23 0 0 7.83 -47.03 0 0 -7.83 35.27 -31.36 -35.27 0zm54.86 39.19l0 -47.02 7.84 0 0 39.19 39.19 0 0 7.83 -47.03 0zm54.86 0l0 -47.02 7.84 0 0 47.02 -7.84 0zm74.47 0l0 -39.19 -19.6 0 0 -7.83 47.03 0 0 7.83 -19.59 0 0 39.19 -7.84 0zm35.26 0l0 -47.02 47.03 0 0 7.83 -39.19 0 0 11.76 31.35 0 0 7.84 -31.35 0 0 11.76 39.19 0 0 7.83 -47.03 0zm54.87 0l0 -47.02 7.83 0 0 19.59 31.36 0 0 -19.59 7.83 0 0 47.02 -7.83 0 0 -19.59 -31.36 0 0 19.59 -7.83 0zm54.86 0l0 -47.02 7.84 0 31.35 35.27 0 -35.27 7.84 0 0 47.02 -7.8 0 -31.39 -35.27 0 35.27 -7.84 0zm62.7 0c-5.23,0 -7.84,-2.61 -7.84,-7.83l0 -31.36c0,-5.21 2.61,-7.83 7.84,-7.83l31.35 0c5.22,0 7.84,2.62 7.84,7.83l0 31.36c0,5.22 -2.62,7.83 -7.84,7.83l-31.35 0zm0 -7.83l31.35 0 0 -31.36 -31.35 0 0 31.36zm47.02 7.83l0 -47.02 7.84 0 0 39.19 39.19 0 0 7.83 -47.03 0zm62.7 0c-5.22,0 -7.83,-2.61 -7.83,-7.83l0 -31.36c0,-5.21 2.61,-7.83 7.83,-7.83l31.36 0c5.21,0 7.83,2.62 7.83,7.83l0 31.36c0,5.22 -2.62,7.83 -7.83,7.83l-31.36 0zm0 -7.83l31.36 0 0 -31.36 -31.36 0 0 31.36zm54.91 7.83c-5.26,0 -7.88,-2.61 -7.88,-7.83l0 -31.36c0,-5.21 2.61,-7.83 7.84,-7.83l31.35 0c5.21,0 7.84,2.62 7.84,7.83l0 7.84 -7.84 0 0 -7.84 -31.35 0 0.04 31.36 31.31 -0.04 -0.04 -11.72 -19.55 0 0.04 -7.84 19.51 0c5.24,0 7.88,2.62 7.88,7.84l0 11.76c0,5.2 -2.63,7.79 -7.84,7.79l-31.31 0.04zm117.48 -0.04l0 -39.15c0,-5.21 2.62,-7.83 7.88,-7.83l31.35 0c5.22,0 7.84,2.62 7.84,7.83l0 39.11 -7.84 0 0 -19.55 -31.35 0.04 0 19.59 -7.88 -0.04zm7.88 -27.39l31.35 0 0 -11.76 -31.35 0 0 11.76zm86.21 27.43l0 -47.02 7.84 0 15.68 15.67 15.67 -15.67 7.84 0 0 47.02 -7.84 0 0 -35.27 -15.67 15.68 -15.68 -15.68 0 35.27 -7.84 0zm54.87 0l0 -47.02 47.02 0 0 7.83 -39.18 0 0 11.76 31.35 0 0 7.84 -31.35 0 0 11.76 39.18 0 0 7.83 -47.02 0zm54.86 0l0 -47.02 39.19 0c5.21,0 7.84,2.62 7.84,7.83l0 7.84c0,2.62 -2.63,5.23 -7.84,7.84 5.21,0 7.84,2.61 7.84,7.84l0 15.67 -7.84 0 0.04 -11.75c0,-5.23 -2.62,-7.84 -7.84,-7.84l-23.51 0 0 19.59 -7.88 0zm7.88 -27.43l23.51 0c5.22,0 7.84,-2.55 7.84,-7.68l0 -0.16 -0.04 -3.92 -31.35 0 0.04 11.76zm46.98 27.43l0 -47.02 7.84 0 0 19.63 31.35 -19.63 7.84 0 0 3.92 -31.39 19.63 31.39 19.56 0 3.91 -7.84 0 -31.35 -19.59 0 19.59 -7.84 0zm53.53 0l0 -47.02 47.03 0 0 7.83 -39.19 0 0 11.76 31.35 0 0 7.84 -31.35 0 0 11.76 39.19 0 0 7.83 -47.03 0zm54.86 -39.19l0 -7.83 47.03 0 0 7.83 -35.23 31.36 35.23 0 0 7.83 -47.03 0 0 -7.83 35.27 -31.36 -35.27 0zm54.86 39.19l0 -47.02 7.84 0 0 47.02 -7.84 0zm-492.43 0l0 -47.02 7.84 0 0 47.02 -7.84 0zm35.31 0l-0.04 -19.59 -11.75 0c-5.23,0 -7.84,-2.61 -7.84,-7.84l0 -19.59 7.84 0 0 15.67c0,2.62 1.31,3.92 3.92,3.92l23.51 0c2.61,0 3.92,-1.3 3.92,-3.92l0 -15.67 7.84 0 0 19.59c0,5.23 -2.63,7.84 -7.84,7.84l-11.76 0 0 19.59 -7.8 0z"/>
   <polygon class="fil2" points="856.84,716.34 856.84,708.5 880.35,708.5 880.35,716.34 "/>
  </g>
 </g>
</svg>
